<?xml version="1.0" encoding="utf-8"?>
<!-- Generator: Adobe Illustrator 21.1.0, SVG Export Plug-In . SVG Version: 6.00 Build 0)  -->
<svg version="1.1" xmlns="http://www.w3.org/2000/svg" xmlns:xlink="http://www.w3.org/1999/xlink" x="0px" y="0px"
	 viewBox="0 0 3840 3840" style="enable-background:new 0 0 3840 3840;" xml:space="preserve">
<style type="text/css">
	.st0{fill:#5C9DD5;}
	.st1{fill:#165098;}
</style>
<g id="background">
</g>
<g id="Colors">
</g>
<g id="V3">
	<g id="Layer_7">
		<g>
			<path class="st0" d="M1920.1,265c-588.1,0-1064.9,476.8-1064.9,1064.9c0,588.1,476.8,1064.9,1064.9,1064.9
				c588.1,0,1064.9-476.8,1064.9-1064.9C2985,741.8,2508.2,265,1920.1,265z M2759.5,1329.9c0,463.6-375.8,839.4-839.4,839.4
				c-463.6,0-839.4-375.8-839.4-839.4c0-463.6,375.8-839.4,839.4-839.4C2383.7,490.5,2759.5,866.3,2759.5,1329.9z"/>
			<path class="st1" d="M2378.1,2425.3L1417,2682.9c-7.4,2-11.8,9.6-9.8,17L1445,2841c2,7.4,9.6,11.8,17,9.8l961.1-257.5
				c7.4-2,11.8-9.6,9.8-17l-37.8-141.2C2393.1,2427.7,2385.5,2423.3,2378.1,2425.3z"/>
			<path class="st0" d="M2378.1,2682.9L1417,2940.4c-7.4,2-11.8,9.6-9.8,17l37.8,141.2c2,7.4,9.6,11.8,17,9.8l961.1-257.5
				c7.4-2,11.8-9.6,9.8-17l-37.8-141.2C2393.1,2685.3,2385.5,2680.9,2378.1,2682.9z"/>
			<path class="st1" d="M2378.1,2936.7L1417,3194.2c-7.4,2-11.8,9.6-9.8,17l37.8,141.2c2,7.4,9.6,11.8,17,9.8l961.1-257.5
				c7.4-2,11.8-9.6,9.8-17l-37.8-141.2C2393.1,2939.1,2385.5,2934.7,2378.1,2936.7z"/>
			<path class="st1" d="M1921,3575.6c158.6,0,287.2-128.6,287.2-287.2c0-14.7-1.1-29.2-3.2-43.3l-551.5,147.8
				C1695.2,3499.8,1799.2,3575.6,1921,3575.6z"/>
		</g>
	</g>
	<g id="Layer_9">
		<g id="Layer_10">
		</g>
	</g>
</g>
</svg>
