<?xml version="1.0" encoding="utf-8"?>
<!-- Generator: Adobe Illustrator 21.1.0, SVG Export Plug-In . SVG Version: 6.00 Build 0)  -->
<svg version="1.1" id="Layer_1" xmlns="http://www.w3.org/2000/svg" xmlns:xlink="http://www.w3.org/1999/xlink" x="0px" y="0px"
	 viewBox="0 0 800 200" style="enable-background:new 0 0 800 200;" xml:space="preserve">
<style type="text/css">
	.st0{fill:#5C9DD5;}
	.st1{fill:#165098;}
</style>
<g>
	<g>
		<path class="st0" d="M151.2,16c-22.1,0-40,17.9-40,40c0,22.1,17.9,40,40,40s40-17.9,40-40C191.2,33.9,173.3,16,151.2,16z
			 M151.2,85.6c-16.4,0-29.6-13.3-29.6-29.6c0-16.4,13.3-29.6,29.6-29.6c16.4,0,29.6,13.3,29.6,29.6
			C180.8,72.4,167.5,85.6,151.2,85.6z"/>
	</g>
	<path class="st1" d="M166.7,97.6l-32.8,8.8c-1.2,0.3-1.9,1.5-1.6,2.7l0.5,2c0.3,1.2,1.5,1.9,2.7,1.6l32.8-8.8
		c1.2-0.3,1.9-1.5,1.6-2.7l-0.5-2C169.2,98,167.9,97.3,166.7,97.6z"/>
	<path class="st0" d="M166.7,108.3l-32.8,8.8c-1.2,0.3-1.9,1.5-1.6,2.7l0.5,2c0.3,1.2,1.5,1.9,2.7,1.6l32.8-8.8
		c1.2-0.3,1.9-1.5,1.6-2.7l-0.5-2C169.2,108.6,167.9,107.9,166.7,108.3z"/>
	<path class="st1" d="M166.7,118.8l-32.8,8.8c-1.2,0.3-1.9,1.5-1.6,2.7l0.5,2c0.3,1.2,1.5,1.9,2.7,1.6l32.8-8.8
		c1.2-0.3,1.9-1.5,1.6-2.7l-0.5-2C169.2,119.2,167.9,118.4,166.7,118.8z"/>
	<path class="st1" d="M153.1,142.4c6,0,10.8-4.8,10.8-10.8c0-0.6,0-1.1-0.1-1.6l-20.7,5.6C144.6,139.5,148.5,142.4,153.1,142.4z"/>
	<path class="st1" d="M104.1,89.6C98.4,92.6,91.3,94,82.9,94c-10.9,0-19.7-3.5-26.3-10.4c-6.6-6.9-9.9-16-9.9-27.2
		c0-12.1,3.7-21.8,11.1-29.3C65.2,19.8,74.6,16,85.9,16c7.3,0,13.3,1,18.2,3.1v12.4C99,28.5,93.4,27,87.2,27
		c-8.2,0-14.8,2.6-19.9,7.8c-5.1,5.2-7.6,12.2-7.6,20.9c0,8.3,2.4,14.9,7.1,19.9c4.7,4.9,11,7.4,18.7,7.4c7.1,0,13.3-1.7,18.5-5.1
		V89.6z"/>
	<path class="st1" d="M279.5,92.8h-12.4V43.9c0-4,0.2-8.9,0.7-14.7h-0.2c-0.8,3.3-1.5,5.7-2.1,7.1l-22.5,56.4h-8.6l-22.6-56
		c-0.6-1.6-1.3-4.2-2-7.5h-0.2c0.3,3,0.4,7.9,0.4,14.8v48.7h-11.6V17.3h17.6L236,67.6c1.5,3.9,2.5,6.7,2.9,8.6h0.3
		c1.3-4,2.4-6.9,3.2-8.8l20.2-50.1h17V92.8z"/>
	<path class="st1" d="M310.6,65.4v27.4h-12.5V17.3H321c8.7,0,15.4,2,20.2,6.1c4.8,4,7.2,9.7,7.2,17.1c0,7.3-2.5,13.3-7.5,18
		c-5,4.7-11.7,7-20.2,7H310.6z M310.6,27.6v27.6h8.1c5.4,0,9.5-1.2,12.3-3.7c2.8-2.5,4.2-6,4.2-10.5c0-8.9-5.2-13.3-15.5-13.3H310.6
		z"/>
	<path class="st1" d="M419.4,92.8h-14.6l-12.1-20.2c-1.1-1.9-2.1-3.4-3.2-4.8c-1-1.3-2.1-2.4-3.2-3.2c-1.1-0.8-2.2-1.5-3.5-1.8
		c-1.3-0.4-2.7-0.6-4.3-0.6h-5.1v30.6h-12.5V17.3H386c3.5,0,6.8,0.4,9.8,1.3c3,0.8,5.6,2.1,7.8,3.8c2.2,1.7,3.9,3.8,5.2,6.4
		c1.2,2.5,1.9,5.5,1.9,8.9c0,2.7-0.4,5.1-1.2,7.3c-0.8,2.2-1.9,4.2-3.4,5.9c-1.5,1.7-3.2,3.2-5.3,4.4c-2.1,1.2-4.4,2.2-6.9,2.8v0.2
		c1.4,0.8,2.6,1.6,3.6,2.6c1,0.9,2,1.9,2.9,2.9c0.9,1,1.8,2.1,2.7,3.3c0.9,1.2,1.9,2.7,3,4.3L419.4,92.8z M373.6,27.5V52H384
		c1.9,0,3.7-0.3,5.3-0.9c1.6-0.6,3-1.5,4.2-2.6c1.2-1.1,2.1-2.5,2.8-4.1c0.7-1.6,1-3.4,1-5.4c0-3.6-1.1-6.4-3.4-8.5
		c-2.3-2-5.6-3.1-9.8-3.1H373.6z"/>
	<path class="st1" d="M470.6,92.8h-42.4V17.3h40.7v10.6h-28.2v21.4h25.9v10.6h-25.9v22.3h29.8V92.8z"/>
	<path class="st1" d="M548,92.8h-13.7l-36.1-55.5c-0.9-1.4-1.7-2.9-2.3-4.4h-0.3c0.3,1.6,0.4,5.1,0.4,10.4v49.5H484V17.3h14.6
		l34.8,54.2c1.5,2.2,2.4,3.8,2.8,4.6h0.2c-0.4-2-0.5-5.4-0.5-10.2V17.3H548V92.8z"/>
	<path class="st1" d="M566.7,92.8V17.3h21.8c27.8,0,41.7,12.3,41.7,36.8c0,11.6-3.9,21-11.6,28.1c-7.7,7.1-18.1,10.6-31.1,10.6
		H566.7z M579.2,27.9v54.3h10c8.8,0,15.7-2.4,20.6-7.3c4.9-4.8,7.3-11.7,7.3-20.5c0-17.6-9.1-26.5-27.4-26.5H579.2z"/>
	<path class="st1" d="M702.3,92.8h-14.6l-12.1-20.2c-1.1-1.9-2.1-3.4-3.2-4.8c-1-1.3-2.1-2.4-3.2-3.2c-1.1-0.8-2.2-1.5-3.5-1.8
		c-1.3-0.4-2.7-0.6-4.3-0.6h-5.1v30.6H644V17.3h24.8c3.5,0,6.8,0.4,9.8,1.3c3,0.8,5.6,2.1,7.8,3.8c2.2,1.7,3.9,3.8,5.2,6.4
		c1.2,2.5,1.9,5.5,1.9,8.9c0,2.7-0.4,5.1-1.2,7.3c-0.8,2.2-1.9,4.2-3.4,5.9c-1.5,1.7-3.2,3.2-5.3,4.4c-2.1,1.2-4.4,2.2-6.9,2.8v0.2
		c1.4,0.8,2.6,1.6,3.6,2.6c1,0.9,2,1.9,2.9,2.9c0.9,1,1.8,2.1,2.7,3.3c0.9,1.2,1.9,2.7,3,4.3L702.3,92.8z M656.5,27.5V52h10.4
		c1.9,0,3.7-0.3,5.3-0.9c1.6-0.6,3-1.5,4.2-2.6c1.2-1.1,2.1-2.5,2.8-4.1c0.7-1.6,1-3.4,1-5.4c0-3.6-1.1-6.4-3.4-8.5
		c-2.3-2-5.6-3.1-9.8-3.1H656.5z"/>
	<path class="st1" d="M753.5,92.8h-42.4V17.3h40.7v10.6h-28.2v21.4h25.9v10.6h-25.9v22.3h29.8V92.8z"/>
	<g>
		<path class="st0" d="M217,179.9V169c1.1,0.9,2.5,1.7,4,2.4c1.6,0.7,3.2,1.3,4.9,1.8c1.7,0.5,3.5,0.9,5.2,1.1
			c1.7,0.3,3.3,0.4,4.8,0.4c5.1,0,8.9-0.7,11.4-2.2c2.5-1.5,3.8-3.6,3.8-6.5c0-1.5-0.4-2.8-1.3-3.9c-0.8-1.1-2-2.1-3.5-3.1
			c-1.5-0.9-3.3-1.8-5.3-2.7c-2-0.8-4.2-1.7-6.5-2.7c-2.5-1.2-4.8-2.3-7-3.5c-2.1-1.2-4-2.5-5.6-3.9c-1.6-1.4-2.8-3.1-3.7-4.9
			c-0.9-1.8-1.4-3.9-1.4-6.4c0-3,0.8-5.6,2.3-7.8c1.6-2.2,3.6-4,6.1-5.5c2.5-1.4,5.4-2.5,8.7-3.2c3.2-0.7,6.6-1,9.9-1
			c7.7,0,13.3,0.8,16.8,2.3v10.5c-4.2-2.6-9.5-3.9-16.1-3.9c-1.8,0-3.6,0.1-5.4,0.4c-1.8,0.3-3.4,0.8-4.8,1.5
			c-1.4,0.7-2.6,1.6-3.5,2.6c-0.9,1.1-1.3,2.4-1.3,3.9c0,1.4,0.3,2.7,1,3.7c0.7,1,1.7,2,3,2.9c1.3,0.9,2.9,1.7,4.8,2.5
			c1.9,0.8,4.1,1.7,6.6,2.7c2.6,1.2,5,2.4,7.2,3.7c2.3,1.3,4.3,2.7,6,4.2c1.7,1.5,3.1,3.3,4.1,5.2c1,1.9,1.5,4,1.5,6.4
			c0,3.2-0.8,6-2.3,8.2c-1.5,2.2-3.5,4-6.1,5.4c-2.5,1.4-5.5,2.4-8.8,3c-3.3,0.6-6.8,0.9-10.5,0.9c-1.2,0-2.7-0.1-4.5-0.2
			c-1.8-0.2-3.6-0.4-5.5-0.7c-1.9-0.3-3.7-0.7-5.3-1.1C219.4,181,218,180.5,217,179.9z"/>
		<path class="st0" d="M330.9,127.5h-21.1v55h-12.2v-55h-21v-9h54.3V127.5z"/>
		<path class="st0" d="M389.1,182.5h-41.2v-64h39.6v9h-27.4v18.1h25.2v9h-25.2v18.9h29V182.5z"/>
		<path class="st0" d="M449.7,182.5h-41.2v-64H448v9h-27.4v18.1h25.2v9h-25.2v18.9h29V182.5z"/>
		<path class="st0" d="M547.8,182.5h-12.1v-41.4c0-3.4,0.2-7.5,0.7-12.4h-0.2c-0.8,2.8-1.4,4.8-2,6l-21.9,47.8H504L482,135
			c-0.6-1.4-1.3-3.5-1.9-6.4h-0.2c0.3,2.6,0.4,6.7,0.4,12.5v41.3H469v-64h17.1l19.3,42.6c1.5,3.3,2.4,5.7,2.9,7.3h0.3
			c1.3-3.4,2.3-5.9,3.1-7.5l19.7-42.4h16.5V182.5z"/>
	</g>
</g>
</svg>
